<svg xmlns="http://www.w3.org/2000/svg" viewBox="0 0 32 32" fill="none">
  <!-- Heart + waveform + signal mark -->
  <rect width="32" height="32" rx="8" fill="#09090D"/>
  <!-- Heart -->
  <path d="M16 22 C16 22 8 17 8 12 C8 9.5 10 8 12 8 C13.5 8 15 9 16 10.5 C17 9 18.5 8 20 8 C22 8 24 9.5 24 12 C24 17 16 22 16 22Z"
        fill="#F5A9B8" opacity="0.9"/>
  <!-- Waveform signal through heart -->
  <path d="M6 16 L9 16 L11 13 L13 19 L15 16 L17 16 L19 14 L21 18 L23 16 L26 16"
        stroke="#5BCEFA" stroke-width="1.2" stroke-linecap="round" stroke-linejoin="round" fill="none" opacity="0.8"/>
</svg>
