<svg xmlns="http://www.w3.org/2000/svg" viewBox="0 0 400 400">
  <defs>
    <linearGradient id="bg" x1="0" y1="0" x2="1" y2="1">
      <stop offset="0%" stop-color="#64a0c0"/>
      <stop offset="100%" stop-color="#081a28"/>
    </linearGradient>
    <linearGradient id="line" x1="0" y1="0" x2="1" y2="0">
      <stop offset="0%" stop-color="#5bcefa" stop-opacity="0"/>
      <stop offset="50%" stop-color="#5bcefa" stop-opacity="0.4"/>
      <stop offset="100%" stop-color="#5bcefa" stop-opacity="0"/>
    </linearGradient>
  </defs>
  <rect width="400" height="400" fill="url(#bg)"/>
  <!-- tree / branches -->
  <line x1="200" y1="330" x2="200" y2="120" stroke="rgba(91,206,250,0.2)" stroke-width="2"/>
  <line x1="200" y1="180" x2="140" y2="140" stroke="rgba(91,206,250,0.18)" stroke-width="1.5"/>
  <line x1="200" y1="210" x2="260" y2="175" stroke="rgba(91,206,250,0.18)" stroke-width="1.5"/>
  <line x1="200" y1="155" x2="165" y2="125" stroke="rgba(91,206,250,0.12)" stroke-width="1"/>
  <line x1="200" y1="155" x2="230" y2="118" stroke="rgba(91,206,250,0.12)" stroke-width="1"/>
  <circle cx="140" cy="140" r="3" fill="rgba(91,206,250,0.4)"/>
  <circle cx="260" cy="175" r="3" fill="rgba(91,206,250,0.4)"/>
  <circle cx="165" cy="125" r="2" fill="rgba(91,206,250,0.3)"/>
  <circle cx="230" cy="118" r="2" fill="rgba(91,206,250,0.3)"/>
  <path d="M 20 230 Q 90 215 160 230 Q 230 245 300 230 Q 355 218 380 230"
        fill="none" stroke="url(#line)" stroke-width="1.2" opacity="0.5"/>
  <text x="200" y="286" text-anchor="middle" font-family="Georgia, serif" font-style="italic" font-size="28" fill="white" opacity="0.9">Cavetown</text>
  <line x1="80" y1="302" x2="320" y2="302" stroke="rgba(91,206,250,0.3)" stroke-width="0.8"/>
  <text x="200" y="322" text-anchor="middle" font-family="monospace" font-size="10" letter-spacing="4" fill="rgba(91,206,250,0.5)">ARTIST</text>
</svg>
